<svg width="11" height="23" viewBox="0 0 11 23" xmlns="http://www.w3.org/2000/svg">
<path fill-rule="evenodd" clip-rule="evenodd" d="M7.2512 22.5C6.80323 22.4998 6.3607 22.4004 5.95456 22.2086C5.54841 22.0169 5.18846 21.7375 4.89986 21.39C5.52588 20.9002 6.3147 20.6755 7.10062 20.7631C7.88653 20.8507 8.60838 21.2439 9.11453 21.86C8.57842 22.2765 7.92157 22.5015 7.24627 22.5H7.2512ZM8.60187 18.875C8.60108 18.1917 8.8229 17.5272 9.23284 16.985C9.8378 17.4998 10.224 18.2313 10.3112 19.0273C10.3984 19.8234 10.1799 20.623 9.70113 21.26C9.35761 20.9677 9.08122 20.6028 8.89134 20.1909C8.70145 19.7789 8.60266 19.3298 8.60187 18.875ZM4.02735 19.745C3.59339 19.6274 3.19015 19.4146 2.84606 19.1218C2.50196 18.8289 2.2254 18.4631 2.03586 18.05C2.76605 17.7449 3.58414 17.7373 4.3197 18.0288C5.05526 18.3204 5.65155 18.8886 5.98434 19.615C5.38295 19.865 4.70268 19.925 4.02735 19.745ZM6.26039 16.595C6.43468 15.937 6.81748 15.3555 7.34979 14.94C7.80185 15.5962 7.98747 16.4038 7.86815 17.1951C7.74883 17.9865 7.33373 18.7008 6.70896 19.19C6.45181 18.817 6.27839 18.3913 6.20089 17.943C6.12339 17.4946 6.14369 17.0345 6.26039 16.595ZM1.11898 16.035C0.773117 15.7457 0.493761 15.3833 0.300472 14.9731C0.107184 14.5628 0.0046331 14.1147 0 13.66C0.790401 13.6871 1.53979 14.0234 2.09114 14.5985C2.64249 15.1736 2.95302 15.9428 2.95766 16.745C2.28444 16.72 1.63816 16.4704 1.11898 16.035ZM4.43649 14.115C4.88014 13.565 5.4766 13.215 6.1125 13.065C6.25598 13.8535 6.09421 14.6677 5.66083 15.3382C5.22746 16.0088 4.55587 16.484 3.78581 16.665C3.70405 16.2175 3.71993 15.7574 3.83235 15.3168C3.94477 14.8762 4.15098 14.466 4.43649 14.115ZM0.591533 11.65C0.331224 11.2794 0.153983 10.8555 0.0722359 10.4081C-0.00951179 9.96072 0.00621255 9.50059 0.118306 9.06C0.874691 9.29355 1.51265 9.81489 1.89858 10.5148C2.2845 11.2148 2.38846 12.039 2.18867 12.815C1.54442 12.6155 0.983042 12.206 0.591533 11.65ZM4.28861 10.665C4.83686 10.2685 5.49871 10.0664 6.17166 10.09C6.1075 10.8879 5.74298 11.63 5.15373 12.1626C4.56447 12.6951 3.79572 12.9771 3.00696 12.95C3.0431 12.4966 3.17654 12.0567 3.39793 11.6611C3.61933 11.2656 3.92332 10.9239 4.28861 10.66V10.665ZM1.04504 7.2C0.913314 6.76472 0.877267 6.30544 0.939439 5.8545C1.00161 5.40356 1.16049 4.97193 1.40489 4.59C2.04851 5.05487 2.48999 5.75416 2.63698 6.5416C2.78398 7.32904 2.62511 8.14364 2.1936 8.815C1.64659 8.4189 1.24304 7.85147 1.04504 7.2ZM4.86042 7.45C5.50321 7.2514 6.19252 7.27248 6.82234 7.51C6.51307 8.24675 5.93596 8.83439 5.21082 9.15095C4.48567 9.4675 3.6682 9.48865 2.92809 9.21C3.10474 8.79238 3.36919 8.41894 3.70296 8.1158C4.03674 7.81266 4.43176 7.58714 4.86042 7.455V7.45ZM2.91823 3.645C2.80485 2.695 3.12526 1.795 3.72173 1.145C4.27437 1.71733 4.58796 2.4839 4.59714 3.28496C4.60633 4.08603 4.3104 4.85979 3.77102 5.445C3.29909 4.95662 2.99932 4.32388 2.91823 3.645ZM6.63009 4.575C7.29791 4.4941 7.97342 4.63816 8.55257 4.985C8.1197 5.655 7.44935 6.13046 6.68035 6.3129C5.91135 6.49533 5.10264 6.37077 4.42171 5.965C4.66748 5.58386 4.99254 5.26193 5.37405 5.0218C5.75557 4.78166 6.18428 4.62916 6.63009 4.575ZM7.10825 1.17C7.63503 0.746565 8.28474 0.51108 8.95679 0.5C8.93279 1.301 8.60537 2.0618 8.0426 2.62424C7.47983 3.18669 6.725 3.50751 5.93504 3.52C5.94948 3.06515 6.06201 2.61903 6.2647 2.21302C6.46739 1.80702 6.75533 1.451 7.10825 1.17Z"/>
</svg>
