<svg width="11" height="23" viewBox="0 0 11 23" xmlns="http://www.w3.org/2000/svg">
<path fill-rule="evenodd" clip-rule="evenodd" d="M3.7488 22.5C4.19677 22.4998 4.6393 22.4004 5.04544 22.2086C5.45159 22.0169 5.81154 21.7375 6.10014 21.39C5.47412 20.9002 4.6853 20.6755 3.89938 20.7631C3.11347 20.8507 2.39162 21.2439 1.88547 21.86C2.42158 22.2765 3.07843 22.5015 3.75373 22.5H3.7488ZM2.39813 18.875C2.39892 18.1917 2.1771 17.5272 1.76716 16.985C1.1622 17.4998 0.775999 18.2313 0.688792 19.0273C0.601585 19.8234 0.820071 20.623 1.29887 21.26C1.64239 20.9677 1.91878 20.6028 2.10866 20.1909C2.29855 19.7789 2.39734 19.3298 2.39813 18.875ZM6.97265 19.745C7.40661 19.6274 7.80985 19.4146 8.15394 19.1218C8.49804 18.8289 8.7746 18.4631 8.96414 18.05C8.23395 17.7449 7.41586 17.7373 6.6803 18.0288C5.94474 18.3204 5.34845 18.8886 5.01566 19.615C5.61705 19.865 6.29732 19.925 6.97265 19.745ZM4.73961 16.595C4.56532 15.937 4.18252 15.3555 3.65021 14.94C3.19815 15.5962 3.01253 16.4038 3.13185 17.1951C3.25117 17.9865 3.66627 18.7008 4.29104 19.19C4.54819 18.817 4.72161 18.3913 4.79911 17.943C4.87661 17.4946 4.85631 17.0345 4.73961 16.595ZM9.88102 16.035C10.2269 15.7457 10.5062 15.3833 10.6995 14.9731C10.8928 14.5628 10.9954 14.1147 11 13.66C10.2096 13.6871 9.46021 14.0234 8.90886 14.5985C8.35751 15.1736 8.04698 15.9428 8.04234 16.745C8.71556 16.72 9.36184 16.4704 9.88102 16.035ZM6.56351 14.115C6.11986 13.565 5.5234 13.215 4.8875 13.065C4.74402 13.8535 4.90579 14.6677 5.33917 15.3382C5.77254 16.0088 6.44413 16.484 7.21419 16.665C7.29595 16.2175 7.28007 15.7574 7.16765 15.3168C7.05523 14.8762 6.84902 14.466 6.56351 14.115ZM10.4085 11.65C10.6688 11.2794 10.846 10.8555 10.9278 10.4081C11.0095 9.96072 10.9938 9.50059 10.8817 9.06C10.1253 9.29355 9.48735 9.81489 9.10142 10.5148C8.7155 11.2148 8.61154 12.039 8.81133 12.815C9.45558 12.6155 10.017 12.206 10.4085 11.65ZM6.71139 10.665C6.16314 10.2685 5.50129 10.0664 4.82834 10.09C4.8925 10.8879 5.25702 11.63 5.84627 12.1626C6.43553 12.6951 7.20428 12.9771 7.99304 12.95C7.9569 12.4966 7.82346 12.0567 7.60207 11.6611C7.38067 11.2656 7.07668 10.9239 6.71139 10.66V10.665ZM9.95496 7.2C10.0867 6.76472 10.1227 6.30544 10.0606 5.8545C9.99839 5.40356 9.83951 4.97193 9.59511 4.59C8.95149 5.05487 8.51001 5.75416 8.36302 6.5416C8.21602 7.32904 8.37489 8.14364 8.8064 8.815C9.35341 8.4189 9.75696 7.85147 9.95496 7.2ZM6.13958 7.45C5.49679 7.2514 4.80748 7.27248 4.17766 7.51C4.48693 8.24675 5.06404 8.83439 5.78918 9.15095C6.51433 9.4675 7.3318 9.48865 8.07191 9.21C7.89526 8.79238 7.63081 8.41894 7.29704 8.1158C6.96326 7.81266 6.56824 7.58714 6.13958 7.455V7.45ZM8.08177 3.645C8.19515 2.695 7.87474 1.795 7.27827 1.145C6.72563 1.71733 6.41204 2.4839 6.40286 3.28496C6.39367 4.08603 6.6896 4.85979 7.22898 5.445C7.70091 4.95662 8.00068 4.32388 8.08177 3.645ZM4.36991 4.575C3.70209 4.4941 3.02658 4.63816 2.44743 4.985C2.8803 5.655 3.55065 6.13046 4.31965 6.3129C5.08865 6.49533 5.89736 6.37077 6.57829 5.965C6.33252 5.58386 6.00746 5.26193 5.62595 5.0218C5.24443 4.78166 4.81572 4.62916 4.36991 4.575ZM3.89175 1.17C3.36497 0.746565 2.71526 0.51108 2.04321 0.5C2.06721 1.301 2.39463 2.0618 2.9574 2.62424C3.52017 3.18669 4.275 3.50751 5.06496 3.52C5.05052 3.06515 4.93799 2.61903 4.7353 2.21302C4.53261 1.80702 4.24467 1.451 3.89175 1.17Z"/>
</svg>
