<svg width="10" height="18" viewBox="0 0 10 18" xmlns="http://www.w3.org/2000/svg">
  <path d="M0.0585938 8.99512C0.0585938 8.82585 0.0878906 8.6696 0.146484 8.52637C0.211589 8.38314 0.309245 8.24642 0.439453 8.11621L8.04688 0.674805C8.26823 0.459961 8.53516 0.352539 8.84766 0.352539C9.0625 0.352539 9.25456 0.404622 9.42383 0.508789C9.59961 0.606445 9.73958 0.739909 9.84375 0.90918C9.94792 1.07845 10 1.27051 10 1.48535C10 1.79134 9.87956 2.06478 9.63867 2.30566L2.7832 8.99512L9.63867 15.6846C9.87956 15.9255 10 16.2021 10 16.5146C10 16.723 9.94792 16.9118 9.84375 17.0811C9.73958 17.2568 9.59961 17.3936 9.42383 17.4912C9.25456 17.5954 9.0625 17.6475 8.84766 17.6475C8.53516 17.6475 8.26823 17.5368 8.04688 17.3154L0.439453 9.87402C0.309245 9.74382 0.211589 9.6071 0.146484 9.46387C0.0878906 9.32064 0.0585938 9.16439 0.0585938 8.99512Z" />
</svg>
