<svg width="10" height="18" viewBox="0 0 10 18" xmlns="http://www.w3.org/2000/svg">
  <path d="M10 8.99512C10 9.16439 9.96745 9.32064 9.90234 9.46387C9.83724 9.6071 9.73958 9.74382 9.60938 9.87402L2.00195 17.3154C1.78711 17.5368 1.52018 17.6475 1.20117 17.6475C0.992839 17.6475 0.800781 17.5954 0.625 17.4912C0.449219 17.3936 0.309245 17.2568 0.205078 17.0811C0.107422 16.9118 0.0585938 16.723 0.0585938 16.5146C0.0585938 16.2021 0.175781 15.9255 0.410156 15.6846L7.26562 8.99512L0.410156 2.30566C0.175781 2.06478 0.0585938 1.79134 0.0585938 1.48535C0.0585938 1.27051 0.107422 1.07845 0.205078 0.90918C0.309245 0.739909 0.449219 0.606445 0.625 0.508789C0.800781 0.404622 0.992839 0.352539 1.20117 0.352539C1.52018 0.352539 1.78711 0.459961 2.00195 0.674805L9.60938 8.11621C9.73958 8.24642 9.83724 8.38314 9.90234 8.52637C9.96745 8.6696 10 8.82585 10 8.99512Z"/>
</svg>
