<svg width="20" height="14" viewBox="0 0 20 14" xmlns="http://www.w3.org/2000/svg">
<path d="M0.00552369 3C0.0202581 2.23039 0.0742968 1.75399 0.272484 1.36502C0.512167 0.894619 0.894619 0.512167 1.36502 0.272484C1.8998 0 2.59987 0 4 0H16C17.4001 0 18.1002 0 18.635 0.272484C19.1054 0.512167 19.4878 0.894619 19.7275 1.36502C19.9257 1.75399 19.9797 2.23039 19.9945 3H0.00552369Z"/>
<path fill-rule="evenodd" clip-rule="evenodd" d="M0 5H20V10C20 11.4001 20 12.1002 19.7275 12.635C19.4878 13.1054 19.1054 13.4878 18.635 13.7275C18.1002 14 17.4001 14 16 14H4C2.59987 14 1.8998 14 1.36502 13.7275C0.894619 13.4878 0.512167 13.1054 0.272484 12.635C0 12.1002 0 11.4001 0 10V5ZM2.07612 9.61732C2 9.80109 2 10.0341 2 10.5C2 10.9659 2 11.1989 2.07612 11.3827C2.17761 11.6277 2.37229 11.8224 2.61732 11.9239C2.80109 12 3.03406 12 3.5 12H4.5C4.96594 12 5.19891 12 5.38268 11.9239C5.62771 11.8224 5.82239 11.6277 5.92388 11.3827C6 11.1989 6 10.9659 6 10.5C6 10.0341 6 9.80109 5.92388 9.61732C5.82239 9.37229 5.62771 9.17761 5.38268 9.07612C5.19891 9 4.96594 9 4.5 9H3.5C3.03406 9 2.80109 9 2.61732 9.07612C2.37229 9.17761 2.17761 9.37229 2.07612 9.61732Z"/>
</svg>
