<svg width="30" height="30" viewBox="0 0 30 30" fill="none" xmlns="http://www.w3.org/2000/svg">
<rect width="30" height="30" rx="7" fill="#D449C5"/>
<path d="M15 22.5C14.4167 22.5 13.9236 22.2986 13.5208 21.8958C13.1181 21.493 12.9167 21 12.9167 20.4166C12.9167 19.8333 13.1181 19.3403 13.5208 18.9375C13.9236 18.5347 14.4167 18.3333 15 18.3333C15.5833 18.3333 16.0764 18.5347 16.4792 18.9375C16.8819 19.3403 17.0833 19.8333 17.0833 20.4166C17.0833 21 16.8819 21.493 16.4792 21.8958C16.0764 22.2986 15.5833 22.5 15 22.5ZM10.2917 17.7916L8.54167 16C9.36111 15.1805 10.3231 14.5314 11.4275 14.0525C12.5319 13.5736 13.7228 13.3339 15 13.3333C16.2778 13.3333 17.4689 13.5764 18.5733 14.0625C19.6778 14.5486 20.6394 15.2083 21.4583 16.0416L19.7083 17.7916C19.0972 17.1805 18.3889 16.7014 17.5833 16.3541C16.7778 16.0069 15.9167 15.8333 15 15.8333C14.0833 15.8333 13.2222 16.0069 12.4167 16.3541C11.6111 16.7014 10.9028 17.1805 10.2917 17.7916ZM6.75 14.25L5 12.5C6.27778 11.1944 7.77083 10.1736 9.47917 9.43748C11.1875 8.70137 13.0278 8.33331 15 8.33331C16.9722 8.33331 18.8125 8.70137 20.5208 9.43748C22.2292 10.1736 23.7222 11.1944 25 12.5L23.25 14.25C22.1806 13.1805 20.9408 12.3436 19.5308 11.7391C18.1208 11.1347 16.6106 10.8328 15 10.8333C13.3889 10.8333 11.8783 11.1355 10.4683 11.74C9.05833 12.3444 7.81889 13.1811 6.75 14.25Z" fill="white"/>
</svg>
