<svg width="30" height="30" viewBox="0 0 30 30" fill="none" xmlns="http://www.w3.org/2000/svg">
<rect width="30" height="30" rx="7" fill="#676DDE"/>
<path d="M21.0417 14.1666C21.6252 14.1666 22.1868 14.3892 22.6119 14.7891C23.037 15.1889 23.2935 15.7358 23.3292 16.3183L23.3333 16.4583V21.875C23.3333 22.0333 23.2731 22.1858 23.165 22.3015C23.0569 22.4172 22.9089 22.4875 22.7509 22.4983C22.5929 22.5091 22.4367 22.4596 22.3139 22.3596C22.1911 22.2597 22.1107 22.1169 22.0892 21.96L22.0833 21.875V20H7.91666V21.875C7.91665 22.026 7.86195 22.1719 7.76268 22.2858C7.66341 22.3996 7.52628 22.4736 7.37666 22.4941L7.29166 22.5C7.14063 22.5 6.9947 22.4453 6.88088 22.346C6.76706 22.2467 6.69303 22.1096 6.67249 21.96L6.66666 21.875V16.4583C6.66663 15.8747 6.88923 15.3131 7.28907 14.8881C7.6889 14.463 8.23584 14.2065 8.81832 14.1708L8.95832 14.1666H21.0417ZM10.625 8.33331H19.375C19.9586 8.33328 20.5202 8.55589 20.9452 8.95572C21.3703 9.35556 21.6268 9.9025 21.6625 10.485L21.6667 10.625V13.3333H19.1667L19.1608 13.2358C19.1389 13.0498 19.0549 12.8766 18.9225 12.7442C18.79 12.6117 18.6168 12.5277 18.4308 12.5058L18.3333 12.5H16.6667C16.4625 12.5 16.2655 12.5749 16.113 12.7106C15.9605 12.8462 15.863 13.0331 15.8392 13.2358L15.8333 13.3333H14.1667L14.1608 13.2358C14.1389 13.0498 14.0549 12.8766 13.9225 12.7442C13.79 12.6117 13.6168 12.5277 13.4308 12.5058L13.3333 12.5H11.6667C11.4625 12.5 11.2655 12.5749 11.113 12.7106C10.9605 12.8462 10.863 13.0331 10.8392 13.2358L10.8333 13.3333H8.33332V10.625C8.33329 10.0414 8.5559 9.47981 8.95573 9.05473C9.35557 8.62966 9.90251 8.37313 10.485 8.33748L10.625 8.33331Z" fill="white"/>
</svg>
