<svg width="30" height="30" viewBox="0 0 30 30" fill="none" xmlns="http://www.w3.org/2000/svg">
<rect width="30" height="30" rx="7" fill="#09DD6B"/>
<path d="M12.566 10.9703C12.622 10.8583 12.7104 10.7656 12.8196 10.7044C12.9289 10.6432 13.0541 10.6162 13.1789 10.627C13.3037 10.6378 13.4224 10.6858 13.5195 10.7648C13.6167 10.8439 13.6879 10.9503 13.7238 11.0703L15.1457 15.8109L16.3176 13.4703C16.3695 13.3665 16.4493 13.2792 16.548 13.2182C16.6467 13.1572 16.7605 13.1249 16.8766 13.1249C16.9926 13.1249 17.1064 13.1572 17.2051 13.2182C17.3038 13.2792 17.3836 13.3665 17.4355 13.4703L18.5113 15.625H22.291C22.8538 14.4648 23.1393 13.1898 23.125 11.9004C23.1004 9.47422 21.1539 7.5 18.7859 7.5C16.9074 7.5 15.6609 8.65391 15 9.49219C14.3406 8.65273 13.0926 7.5 11.2141 7.5C8.84608 7.5 6.8996 9.47422 6.87499 11.9004C6.86489 12.7382 6.98252 13.5726 7.22382 14.375H10.8637L12.566 10.9703Z" fill="white"/>
<path d="M17.566 16.5297L16.875 15.1477L15.559 17.7797C15.5071 17.8835 15.4273 17.9708 15.3285 18.0317C15.2298 18.0927 15.116 18.125 15 18.125C14.9826 18.125 14.9646 18.1242 14.9461 18.1227C14.821 18.1123 14.7019 18.0645 14.6044 17.9855C14.5068 17.9065 14.4353 17.7999 14.3992 17.6797L12.9773 12.9391L11.8055 15.2797C11.7538 15.383 11.6746 15.4699 11.5765 15.5308C11.4785 15.5918 11.3654 15.6244 11.25 15.625H7.70898C8.07357 16.3878 8.55885 17.1386 9.16484 17.8774C9.89805 18.7711 11.2273 20.2 14.2973 22.284C14.5043 22.4259 14.7494 22.5018 15.0004 22.5018C15.2514 22.5018 15.4965 22.4259 15.7035 22.284C18.7734 20.2 20.1027 18.7711 20.8359 17.8774C21.1 17.5559 21.3477 17.2214 21.5781 16.875H18.125C18.009 16.875 17.8952 16.8427 17.7965 16.7817C17.6977 16.7208 17.6179 16.6335 17.566 16.5297ZM23.125 15.625H22.291C22.0832 16.058 21.845 16.4757 21.5781 16.875H23.125C23.2908 16.875 23.4497 16.8092 23.5669 16.692C23.6842 16.5748 23.75 16.4158 23.75 16.25C23.75 16.0843 23.6842 15.9253 23.5669 15.8081C23.4497 15.6909 23.2908 15.625 23.125 15.625ZM6.875 14.375C6.70924 14.375 6.55027 14.4409 6.43306 14.5581C6.31585 14.6753 6.25 14.8343 6.25 15C6.25 15.1658 6.31585 15.3248 6.43306 15.442C6.55027 15.5592 6.70924 15.625 6.875 15.625H7.70898C7.5157 15.2213 7.35351 14.8034 7.22383 14.375H6.875Z" fill="white"/>
</svg>
