<svg width="30" height="30" viewBox="0 0 30 30" fill="none" xmlns="http://www.w3.org/2000/svg">
<rect width="30" height="30" rx="7" fill="#018EF4"/>
<path fill-rule="evenodd" clip-rule="evenodd" d="M11.9939 5.93311C12.6335 5.6682 13.3372 5.59889 14.0161 5.73394C14.6951 5.86899 15.3187 6.20233 15.8082 6.69181C16.2977 7.1813 16.631 7.80494 16.7661 8.48387C16.9011 9.16281 16.8318 9.86654 16.5669 10.5061C16.302 11.1456 15.8534 11.6922 15.2778 12.0768C14.7022 12.4614 14.0256 12.6667 13.3333 12.6667H7.49999C6.94771 12.6667 6.49999 12.219 6.49999 11.6667C6.49999 11.1144 6.94771 10.6667 7.49999 10.6667H13.3333C13.63 10.6667 13.92 10.5787 14.1667 10.4139C14.4134 10.2491 14.6056 10.0148 14.7191 9.74071C14.8327 9.46662 14.8624 9.16502 14.8045 8.87405C14.7466 8.58308 14.6038 8.31581 14.394 8.10603C14.1842 7.89625 13.9169 7.75339 13.626 7.69551C13.335 7.63763 13.0334 7.66734 12.7593 7.78087C12.4852 7.8944 12.2509 8.08666 12.0861 8.33333C11.9213 8.58001 11.8333 8.87002 11.8333 9.16669C11.8333 9.71897 11.3856 10.1667 10.8333 10.1667C10.281 10.1667 9.83332 9.71897 9.83332 9.16669C9.83332 8.47445 10.0386 7.79776 10.4232 7.22219C10.8078 6.64662 11.3544 6.19802 11.9939 5.93311ZM19.4939 9.26644C20.1335 9.00154 20.8372 8.93223 21.5161 9.06727C22.1951 9.20232 22.8187 9.53566 23.3082 10.0251C23.7977 10.5146 24.131 11.1383 24.2661 11.8172C24.4011 12.4961 24.3318 13.1999 24.0669 13.8394C23.802 14.479 23.3534 15.0256 22.7778 15.4102C22.2022 15.7947 21.5256 16 20.8333 16H6.66666C6.11437 16 5.66666 15.5523 5.66666 15C5.66666 14.4477 6.11437 14 6.66666 14H20.8333C21.13 14 21.42 13.912 21.6667 13.7472C21.9134 13.5824 22.1056 13.3481 22.2191 13.074C22.3327 12.8 22.3624 12.4984 22.3045 12.2074C22.2466 11.9164 22.1038 11.6491 21.894 11.4394C21.6842 11.2296 21.4169 11.0867 21.126 11.0288C20.835 10.971 20.5334 11.0007 20.2593 11.1142C19.9852 11.2277 19.7509 11.42 19.5861 11.6667C19.4213 11.9133 19.3333 12.2033 19.3333 12.5C19.3333 13.0523 18.8856 13.5 18.3333 13.5C17.781 13.5 17.3333 13.0523 17.3333 12.5C17.3333 11.8078 17.5386 11.1311 17.9232 10.5555C18.3078 9.97995 18.8544 9.53135 19.4939 9.26644ZM7.33332 18.3334C7.33332 17.7811 7.78104 17.3334 8.33332 17.3334H17.5C18.1922 17.3334 18.8689 17.5386 19.4445 17.9232C20.0201 18.3078 20.4687 18.8544 20.7336 19.494C20.9985 20.1335 21.0678 20.8372 20.9327 21.5162C20.7977 22.1951 20.4643 22.8187 19.9749 23.3082C19.4854 23.7977 18.8617 24.1311 18.1828 24.2661C17.5039 24.4012 16.8001 24.3318 16.1606 24.0669C15.5211 23.802 14.9744 23.3534 14.5898 22.7778C14.2053 22.2023 14 21.5256 14 20.8334C14 20.2811 14.4477 19.8334 15 19.8334C15.5523 19.8334 16 20.2811 16 20.8334C16 21.13 16.088 21.42 16.2528 21.6667C16.4176 21.9134 16.6519 22.1056 16.926 22.2192C17.2001 22.3327 17.5017 22.3624 17.7926 22.3045C18.0836 22.2467 18.3509 22.1038 18.5606 21.894C18.7704 21.6842 18.9133 21.417 18.9712 21.126C19.029 20.835 18.9993 20.5334 18.8858 20.2593C18.7723 19.9852 18.58 19.751 18.3333 19.5861C18.0867 19.4213 17.7967 19.3334 17.5 19.3334H8.33332C7.78104 19.3334 7.33332 18.8856 7.33332 18.3334Z" fill="white"/>
</svg>
