<svg width="30" height="30" viewBox="0 0 30 30" fill="none" xmlns="http://www.w3.org/2000/svg">
<rect width="30" height="30" rx="7" fill="#06C79B"/>
<g clip-path="url(#clip0_1038_61)">
<path fill-rule="evenodd" clip-rule="evenodd" d="M15.585 6.82919L21.4183 9.01669C21.7361 9.1358 22.0099 9.34906 22.2032 9.62798C22.3965 9.9069 22.5 10.2382 22.5 10.5775V15.0467C22.5 16.4395 22.1122 17.8049 21.3799 18.9897C20.6477 20.1746 19.6 21.1321 18.3542 21.755L15.5592 23.1517C15.3856 23.2385 15.1941 23.2837 15 23.2837C14.8059 23.2837 14.6144 23.2385 14.4408 23.1517L11.6458 21.7542C10.4 21.1313 9.35231 20.1737 8.62006 18.9889C7.88781 17.8041 7.49997 16.4387 7.5 15.0459V10.5784C7.49979 10.2389 7.60325 9.90741 7.79656 9.62832C7.98986 9.34924 8.26378 9.13585 8.58167 9.01669L14.415 6.82919C14.7922 6.6878 15.2078 6.6878 15.585 6.82919ZM15 16.6667C14.779 16.6667 14.567 16.7545 14.4107 16.9108C14.2545 17.067 14.1667 17.279 14.1667 17.5C14.1667 17.721 14.2545 17.933 14.4107 18.0893C14.567 18.2456 14.779 18.3334 15 18.3334C15.221 18.3334 15.433 18.2456 15.5893 18.0893C15.7455 17.933 15.8333 17.721 15.8333 17.5C15.8333 17.279 15.7455 17.067 15.5893 16.9108C15.433 16.7545 15.221 16.6667 15 16.6667ZM15 10.8334C14.7959 10.8334 14.5989 10.9083 14.4464 11.0439C14.2938 11.1796 14.1964 11.3665 14.1725 11.5692L14.1667 11.6667V15C14.1669 15.2124 14.2482 15.4167 14.394 15.5712C14.5398 15.7256 14.7391 15.8185 14.9512 15.831C15.1632 15.8434 15.372 15.7745 15.5349 15.6381C15.6977 15.5018 15.8024 15.3084 15.8275 15.0975L15.8333 15V11.6667C15.8333 11.4457 15.7455 11.2337 15.5893 11.0774C15.433 10.9211 15.221 10.8334 15 10.8334Z" fill="white"/>
</g>
<defs>
<clipPath id="clip0_1038_61">
<rect width="19" height="19" fill="white" transform="translate(6 5)"/>
</clipPath>
</defs>
</svg>
