<svg width="30" height="30" viewBox="0 0 30 30" fill="none" xmlns="http://www.w3.org/2000/svg">
<g clip-path="url(#clip0_116_200)">
<path d="M0 11.2C0 7.27963 0 5.31945 0.762954 3.82207C1.43407 2.50493 2.50493 1.43407 3.82207 0.762954C5.31945 0 7.27963 0 11.2 0H18.8C22.7204 0 24.6805 0 26.1779 0.762954C27.4951 1.43407 28.5659 2.50493 29.237 3.82207C30 5.31945 30 7.27963 30 11.2V18.8C30 22.7204 30 24.6805 29.237 26.1779C28.5659 27.4951 27.4951 28.5659 26.1779 29.237C24.6805 30 22.7204 30 18.8 30H11.2C7.27963 30 5.31945 30 3.82207 29.237C2.50493 28.5659 1.43407 27.4951 0.762954 26.1779C0 24.6805 0 22.7204 0 18.8V11.2Z" fill="#007AFF"/>
<ellipse cx="15" cy="10.5" rx="4" ry="4.5" fill="white"/>
<path d="M21.6049 24H8.40488C7.70437 24 7.35411 24 6.97678 23.7492C6.71299 23.5738 6.40115 23.111 6.33765 22.8007C6.24683 22.3568 6.33945 22.1281 6.5247 21.6708C7.34965 19.6343 9.48381 17 15.0049 17C20.526 17 22.6601 19.6343 23.4851 21.6708C23.6703 22.1281 23.7629 22.3568 23.6721 22.8007C23.6086 23.111 23.2968 23.5738 23.033 23.7492C22.6557 24 22.3054 24 21.6049 24Z" fill="white"/>
</g>
<defs>
<clipPath id="clip0_116_200">
<rect width="30" height="30" fill="white"/>
</clipPath>
</defs>
</svg>
