<svg xmlns="http://www.w3.org/2000/svg" width="400" height="400" fill="none"><g clip-path="url(#a)"><path fill="url(#b)" d="M0 200C0 115.592 0 73.388 21.94 44.08a109.996 109.996 0 0 1 22.14-22.14C73.388 0 115.591 0 200 0c84.408 0 126.612 0 155.921 21.94a110.03 110.03 0 0 1 22.139 22.14C400 73.388 400 115.591 400 200c0 84.408 0 126.612-21.94 155.921a110.063 110.063 0 0 1-22.139 22.139C326.612 400 284.408 400 200 400c-84.408 0-126.612 0-155.92-21.94a110.03 110.03 0 0 1-22.14-22.139C0 326.612 0 284.408 0 200Z"/><path stroke="#fff" stroke-linecap="round" stroke-linejoin="round" stroke-width="41" d="M93 199.702 177.813 285 320 142"/></g><defs><linearGradient id="b" x1="200" x2="200" y1="0" y2="400" gradientUnits="userSpaceOnUse"><stop stop-color="#00B3FF"/><stop offset="1" stop-color="#0B8AFF"/></linearGradient><clipPath id="a"><path fill="#fff" d="M0 0h400v400H0z"/></clipPath></defs></svg>